<svg xmlns="http://www.w3.org/2000/svg" width="53.897" height="40" viewBox="0 0 53.897 40">
  <g id="Groupe_3120" data-name="Groupe 3120" transform="translate(6)">
    <path id="Tracé_240" data-name="Tracé 240" d="M16.48,25.986a14.6,14.6,0,0,0-3.77-.512,12.61,12.61,0,0,0-4.727.9c1.188-4.046,4.043-11.029,9.729-11.815a1.323,1.323,0,0,0,1.1-.9l1.243-4.135a1.182,1.182,0,0,0-.172-1.027,1.365,1.365,0,0,0-.945-.555,10.136,10.136,0,0,0-1.271-.08c-6.825,0-13.585,6.627-16.437,16.116C-.443,29.54-.934,37.91,3.19,43.177,5.5,46.125,8.865,47.7,13.2,47.856h.053a11.918,11.918,0,0,0,11.528-8.144,10.391,10.391,0,0,0-1.1-8.466A11.906,11.906,0,0,0,16.48,25.986Z" transform="translate(-6 -7.858)" fill="#83d6a0"/>
    <path id="Tracé_241" data-name="Tracé 241" d="M72.307,31.248a11.9,11.9,0,0,0-7.2-5.262,14.6,14.6,0,0,0-3.769-.512,12.612,12.612,0,0,0-4.727.9c1.188-4.046,4.043-11.029,9.729-11.815a1.324,1.324,0,0,0,1.1-.9l1.243-4.135a1.182,1.182,0,0,0-.172-1.027,1.363,1.363,0,0,0-.945-.555,10.123,10.123,0,0,0-1.271-.08c-6.825,0-13.585,6.627-16.437,16.116-1.674,5.567-2.165,13.936,1.96,19.2,2.307,2.947,5.675,4.522,10.007,4.679h.053a11.918,11.918,0,0,0,11.528-8.144A10.4,10.4,0,0,0,72.307,31.248Z" transform="translate(-25.956 -7.858)" fill="#83d6a0"/>
  </g>
</svg>
