<?xml version="1.0" encoding="UTF-8"?>
<svg width="749px" height="749px" viewBox="0 0 749 749" version="1.1" xmlns="http://www.w3.org/2000/svg" xmlns:xlink="http://www.w3.org/1999/xlink">
    <!-- Generator: Sketch 54.1 (76490) - https://sketchapp.com -->
    <title>Medium_profilepic</title>
    <desc>Created with Sketch.</desc>
    <defs>
        <polygon id="path-1" points="0.000690427326 0.624221477 2518.9447 0.624221477 2518.9447 514.998617 0.000690427326 514.998617"></polygon>
        <polygon id="path-3" points="0.00207128198 0.863867188 2518.94332 0.863867188 2518.94332 769.64681 0.00207128198 769.64681"></polygon>
        <polygon id="path-5" points="0 0.583157934 2518.94332 0.583157934 2518.94332 684.964831 0 684.964831"></polygon>
        <polygon id="path-7" points="0 0.125972533 2518.94332 0.125972533 2518.94332 593.454499 0 593.454499"></polygon>
        <polygon id="path-9" points="0.573276209 0.227666972 101.796 0.227666972 101.796 100.744157 0.573276209 100.744157"></polygon>
    </defs>
    <g id="Medium_profilepic" stroke="none" stroke-width="1" fill="none" fill-rule="evenodd">
        <rect fill="#FFFFFF" x="0" y="0" width="749" height="749"></rect>
        <g id="Group-13" transform="translate(-885.000000, -87.000000)">
            <g id="Group-3" transform="translate(0.000000, 408.000000)">
                <mask id="mask-2" fill="white">
                    <use xlink:href="#path-1"></use>
                </mask>
                <g id="Clip-2"></g>
                <path d="M2296.23425,459.606738 C2070.83044,448.003685 1836.95854,396.887342 1613.24628,211.397477 L1592.13301,193.880564 C1400.59811,34.9564027 1359.7041,1.06663758 1263.30319,0.624221477 C1181.36672,1.07009396 1144.32184,30.1935168 1009.44341,136.36647 C981.425873,158.418148 949.673121,183.414658 912.628242,211.978148 C624.509467,434.119423 363.527938,462.606872 168.351037,462.606872 L0.000690427326,462.606872 L0.000690427326,514.998617 L239.406366,514.998617 C571.602021,514.998617 774.653246,401.297678 937.808127,309.935295 C1051.68721,246.168617 1150.11798,191.084356 1263.2514,190.728349 C1376.4228,191.049792 1474.895,246.154792 1588.79824,309.935295 C1751.95313,401.297678 1955.0078,514.998617 2287.20346,514.998617 L2518.94539,514.998617 L2518.94539,462.606872 L2423.81831,462.606872 C2414.91525,462.606872 2405.98457,462.56194 2397.04009,462.489356 L2296.23425,459.606738 Z" id="Fill-1" fill="#D2EEEE" mask="url(#mask-2)"></path>
            </g>
            <g id="Group-6" transform="translate(0.000000, 1.000000)">
                <mask id="mask-4" fill="white">
                    <use xlink:href="#path-3"></use>
                </mask>
                <g id="Clip-5"></g>
                <path d="M2447.06638,712.720117 C2062.00816,712.720117 1823.58289,428.172917 1649.49164,220.406706 C1584.38779,142.711328 1532.96477,81.3403646 1484.97316,48.3499349 C1395.81483,-12.9347656 1355.83564,-4.053125 1309.09371,15.2145833 C1298.09175,19.7520182 1287.69391,24.0375651 1275.54239,26.421875 C1270.77154,27.3569661 1266.05937,27.9401042 1261.1746,28.2057943 C1256.98716,28.0505208 1250.33489,27.5363932 1247.59044,26.9049479 C1236.89572,24.4309245 1227.47829,20.5490885 1217.51197,16.4395182 C1170.7873,-2.81438802 1130.81847,-11.7201823 1041.63597,49.5748698 C993.644366,82.5652995 942.221339,143.936263 877.117494,221.631641 C703.026244,429.397852 464.600975,713.945052 79.5427514,713.945052 L0.00207128198,713.945052 L0.00207128198,769.494987 C25.2820678,769.591602 51.7426951,769.64681 79.5427514,769.64681 C534.120103,769.64681 776.332365,496.358659 936.611617,315.527214 C987.278626,258.355534 1031.04136,208.982031 1069.7916,181.426172 C1151.69008,123.195182 1170.02438,131.956055 1197.78647,145.209505 C1208.5088,150.330078 1220.66723,156.133854 1236.50908,159.794857 C1245.46392,161.86862 1258.29552,162.310286 1260.7707,162.375846 L1261.60957,162.403451 L1262.45534,162.362044 C1270.15706,162.006641 1277.53427,161.126758 1285.0047,159.660286 C1302.59333,156.209766 1316.22237,150.285221 1328.24271,145.061133 C1357.92763,132.159635 1377.53577,123.657552 1450.55536,173.85918 C1490.29981,201.176953 1535.82659,251.313021 1588.53726,309.364583 C1733.58569,469.099544 1944.39731,701.191927 2302.21473,751.838672 C2348.26968,760.43737 2396.50639,765.14388 2447.06638,765.14388 L2518.94332,765.14388 L2518.94332,712.678711 C2496.00732,712.706315 2472.07021,712.720117 2447.06638,712.720117" id="Fill-4" fill="#023436" mask="url(#mask-4)"></path>
            </g>
            <g id="Group-9" transform="translate(0.000000, 133.000000)">
                <mask id="mask-6" fill="white">
                    <use xlink:href="#path-5"></use>
                </mask>
                <g id="Clip-8"></g>
                <path d="M2302.21473,620.047362 C1944.39731,569.33671 1733.58569,336.954925 1588.53726,177.014954 C1535.82659,118.890141 1490.29981,68.6908108 1450.55536,41.3351126 C1377.53577,-8.92640521 1357.92763,-0.413593835 1328.24271,12.5041828 C1316.22237,17.7348632 1302.59333,23.6668831 1285.0047,27.1217579 C1277.53427,28.5900797 1270.15706,29.4745276 1262.45534,29.8269248 L1261.60957,29.8683833 L1260.7707,29.8407443 C1258.29552,29.7751017 1245.46392,29.3328777 1236.50908,27.256498 C1220.66723,23.5908759 1208.5088,17.7797766 1197.78647,12.6527425 C1170.02438,-0.613976571 1151.69008,-9.38590355 1069.7916,48.9151078 C1031.03791,76.5057375 987.278626,125.94154 936.611617,183.18536 C776.332365,364.244981 534.120103,637.874515 79.5427514,637.874515 C51.7426951,637.874515 25.2820678,637.822692 -0.00138085465,637.725956 L-0.00138085465,686.964831 L123.947585,686.964831 C626.41988,686.964831 964.201092,325.436373 1075.19764,206.633595 C1086.41363,194.627905 1095.27182,185.151184 1101.52018,179.001507 C1140.46028,140.700765 1150.28161,142.400564 1186.78105,148.729894 C1205.55722,151.980931 1228.84189,155.957492 1261.39899,156.258066 L1261.39899,156.316799 C1262.05835,156.316799 1262.65211,156.292615 1263.30457,156.28916 C1263.95357,156.292615 1264.54734,156.316799 1265.20669,156.316799 L1265.20669,156.258066 C1297.75689,155.957492 1321.04846,151.980931 1339.82808,148.729894 C1376.33788,142.400564 1386.15575,140.700765 1425.0924,179.001507 C1431.34077,185.147729 1440.1955,194.620995 1451.40459,206.619775 C1562.40114,325.426008 1900.17199,686.964831 2402.66155,686.964831 L2518.94332,686.964831 L2518.94332,633.818493 L2517.41747,633.365904 L2447.06638,633.365904 C2396.50294,633.365904 2348.26968,628.65691 2302.21473,620.047362" id="Fill-7" fill="#0A6E77" mask="url(#mask-6)"></path>
            </g>
            <g id="Group-12" transform="translate(0.000000, 278.000000)">
                <mask id="mask-8" fill="white">
                    <use xlink:href="#path-7"></use>
                </mask>
                <g id="Clip-11"></g>
                <path d="M1451.40459,61.4335984 C1440.1955,49.4505084 1431.34077,39.9896295 1425.0924,33.8514443 C1386.15575,-4.39921362 1376.33788,-2.70163796 1339.82808,3.6194161 C1321.04846,6.86620206 1297.75689,10.837563 1265.20669,11.137744 L1265.20669,11.1964001 C1264.54734,11.1964001 1263.95357,11.1722476 1263.30457,11.1687973 C1262.65211,11.1722476 1262.05835,11.1964001 1261.39899,11.1964001 L1261.39899,11.137744 C1228.84189,10.837563 1205.55722,6.86620206 1186.78105,3.6194161 C1150.28161,-2.70163796 1140.46028,-4.39921362 1101.52018,33.8514443 C1095.27182,39.9930798 1086.41363,49.4574091 1075.19419,61.4473998 C964.201092,180.094827 626.41988,541.150536 123.947585,541.150536 L-0.00138085465,541.150536 L-0.00138085465,593.454499 L168.352418,593.454499 C363.525867,593.454499 624.507396,565.016656 912.629623,343.26221 C949.674502,314.74846 981.427254,289.795478 1009.4448,267.7822 C1144.32323,161.790683 1181.3681,132.721425 1263.30457,132.276329 C1359.70548,132.717974 1400.59604,166.545275 1592.13439,325.196141 L1613.24766,342.68255 C1879.51095,563.074105 2160.18002,593.454499 2423.81969,593.454499 L2518.94332,593.454499 L2518.94332,541.150536 L2402.66155,541.150536 C1900.17199,541.150536 1562.40114,180.084476 1451.40459,61.4335984" id="Fill-10" fill="#83D6A0" mask="url(#mask-8)"></path>
            </g>
        </g>
        <g id="Group-12" transform="translate(37.000000, 561.000000)">
            <path d="M128.944586,5.28104704 C111.219684,-2.66433593 94.0028715,-1.63897636 77.7726743,8.32113201 C76.5578806,9.06869389 74.0451516,9.56429973 72.7195023,8.66907131 C66.6067346,4.54086849 59.7650908,1.94193732 52.3811778,0.942419406 C41.8360301,-0.482562741 33.3675789,0.665544636 25.7213075,4.56209556 C23.8792554,5.49977811 21.4127163,5.41856151 19.6732057,5.18967837 C14.8260405,4.54640599 10.0961976,3.7868462 5.0864441,2.98114063 C3.50305529,2.72641584 1.9104285,2.47076813 0.30117336,2.21788918 C0.286392601,2.31110368 0.270688045,2.4052411 0.254983488,2.49660978 C0.148746783,3.12880717 0.0563670387,3.67517338 0.0563670387,4.18000838 L0.0480528618,35.2758137 C0.044357672,56.0072736 0.0406624822,76.7387334 1.5394882e-05,97.4692703 C-0.0018322,98.5047819 0.162603744,99.1702043 0.503485,99.5061457 C0.843442458,99.8383954 1.50580522,100.014672 2.53583937,99.9740641 C6.95898151,99.898385 11.4551037,99.9113058 15.8015706,99.9260724 C17.9290761,99.9325328 20.0565816,99.9343787 22.1877823,99.9362245 C23.9439212,99.9325328 25.2122951,99.930687 25.5254625,99.612281 C25.8441726,99.2883375 25.8460202,97.9925636 25.8460202,96.2030297 C25.8497154,90.7375217 25.8441726,85.2738596 25.837706,79.8092746 C25.8275442,68.0310219 25.8155349,55.8531466 25.8866673,43.8727753 C25.9457903,33.9412774 33.8590392,26.1970901 43.9210409,26.1970901 L44.0337442,26.1970901 C54.0532512,26.2561567 61.9526431,34.2966 62.0182327,44.5049727 C62.0930603,56.386592 62.0819748,68.4675611 62.0690416,80.1489076 C62.0644226,85.3661512 62.0588798,90.5833948 62.0607274,95.8024842 C62.0607274,97.8402825 62.062575,99.1858939 62.4431796,99.5550602 C62.8348697,99.9380703 64.2353466,99.9380703 66.3508427,99.9389933 L83.2332409,99.9389933 C85.508554,99.9389933 87.0106487,99.9380703 87.4466811,99.5162978 C87.8697803,99.1037544 87.8716279,97.6538535 87.8716279,95.4600824 C87.8734755,90.3314387 87.8642375,85.203718 87.8559233,80.0741515 C87.8383712,68.1916093 87.8180476,55.9048299 87.916894,43.8164775 C87.9658552,37.9882636 90.703067,32.7461013 95.428291,29.4309874 C98.4916033,27.2805933 102.034366,26.1786317 105.652881,26.1786317 C107.689854,26.1786317 109.752694,26.5274939 111.767496,27.2362934 C119.435015,29.9302849 124.02906,36.5355939 124.056774,44.9055182 C124.108506,59.1442647 124.149153,77.9209887 124.026288,96.8924479 C124.017974,98.2454426 124.206429,99.0613002 124.618442,99.4673832 C125.024913,99.8614683 125.802751,100.031285 127.025859,99.9952911 C133.679048,99.8180913 140.440321,99.886387 146.971569,99.9491453 L147.730007,99.9583745 C148.653804,99.9666807 149.184988,99.8273204 149.481527,99.5338332 C149.778066,99.239423 149.918483,98.679213 149.914788,97.8190554 C149.887074,91.4666253 149.920331,85.1132723 149.952663,78.7589963 C150.019177,65.714503 150.088462,52.227933 149.611782,38.9877815 C149.204388,27.657143 145.287486,12.6099222 128.944586,5.28104704" id="Fill-1" fill="#023436"></path>
            <path d="M533.965285,5.29158255 C516.264224,-2.65868511 499.04539,-1.64736973 482.794706,8.30522858 C481.566043,9.05817872 479.050517,9.55922275 477.739635,8.67616725 C471.612949,4.54693701 464.770312,1.9448299 457.404801,0.944587316 C446.875252,-0.485648859 438.404867,0.660385547 430.740967,4.54970521 C428.878572,5.49550655 426.423094,5.41891971 424.696499,5.19285012 C419.855752,4.54878247 415.115699,3.78568227 410.097581,2.97921361 C408.504014,2.72269384 406.896591,2.46432859 405.272538,2.20688608 C405.257757,2.32684137 405.242053,2.44402847 405.228196,2.55844736 C405.13212,3.27910184 405.051749,3.90286936 405.051749,4.49803216 L405.044358,34.183276 C405.043434,55.2640345 405.041587,76.3457157 405.000015,97.4255514 C404.998168,98.4756216 405.162605,99.1501394 405.505338,99.486937 C405.841603,99.8191209 406.499354,99.9907492 407.511846,99.9547626 C411.947966,99.8735621 416.4506,99.8920168 420.812816,99.904935 C422.930181,99.9113942 425.049393,99.9150851 427.165835,99.9150851 C428.933077,99.9132396 430.208854,99.9113942 430.526643,99.5930513 C430.845357,99.2719402 430.847204,97.9865731 430.847204,96.2066211 C430.849052,90.8418514 430.843509,85.4743134 430.837966,80.1104664 C430.827804,68.2395061 430.816719,55.9625434 430.886004,43.8876591 C430.944204,33.9470563 438.856609,26.1905626 448.914093,26.1905626 L449.007397,26.1905626 C459.039015,26.2385447 466.950496,34.2681674 467.01701,44.4708264 C467.146343,64.3658729 467.13341,80.8837167 466.980982,96.4529908 C466.966201,97.9911868 467.185143,98.9259153 467.670141,99.3965091 C468.151445,99.8652575 469.057699,100.053495 470.605075,99.9870583 C474.87491,99.8209663 479.214031,99.853262 483.408113,99.8883258 C485.352726,99.9030896 487.295492,99.9150851 489.241953,99.9150851 C490.983329,99.9113942 492.24063,99.9095487 492.549181,99.5912058 C492.867894,99.2627129 492.869742,97.9570456 492.869742,96.1521799 C492.87159,90.6803731 492.867894,85.2113345 492.864199,79.7413732 C492.854961,67.8870221 492.846647,56.0326711 492.900228,44.1792428 C492.922399,39.2213983 494.796803,34.6511016 498.177012,31.3144991 C501.555373,27.976051 506.117131,26.2044036 511.089059,26.1905626 C521.092962,26.2597676 528.980424,34.3124586 529.041395,44.5261904 C529.143938,61.1510711 529.138395,78.7549716 529.027538,96.8506888 C529.019224,98.2375565 529.203061,99.0412569 529.62247,99.4491049 C530.019707,99.8366528 530.805866,100.013818 532.004043,99.9759855 C538.543671,99.7969753 545.190461,99.8615666 551.616461,99.9270806 L552.7084,99.9372307 C553.565693,99.9436898 554.187415,99.8052799 554.486728,99.5090826 C554.779575,99.2184217 554.920917,98.6675501 554.917222,97.8214039 C554.889508,91.4527006 554.922765,85.0821519 554.953251,78.7097577 C555.019765,65.6872266 555.086279,52.220861 554.614214,39.0036333 C554.209586,27.6733946 550.298188,12.6254646 533.965285,5.29158255" id="Fill-3" fill="#023436"></path>
            <path d="M351.845575,68.4000014 C347.066014,73.1795348 340.595223,75.8086478 333.615226,75.8086478 L333.522392,75.8086478 C326.630633,75.786469 320.240727,73.141646 315.528264,68.365809 C310.754218,63.5243598 308.144762,56.9511152 308.180608,49.8594409 C308.253221,35.6206453 319.471402,24.4647041 333.717251,24.4647041 L333.720928,24.4647041 C340.687138,24.4665524 347.139545,27.1012101 351.886936,31.88444 C356.648114,36.6796834 359.260328,43.1965569 359.24746,50.2327842 C359.235511,57.1858409 356.605834,63.6371021 351.845575,68.4000014 M384.937601,4.69691618 C384.937601,3.94468489 384.853959,3.18044009 384.759286,2.29421183 C384.743661,2.15467015 384.728035,2.01235613 384.713329,1.86819387 C383.43112,2.15929074 382.176485,2.45315996 380.942072,2.7424086 C377.471375,3.55655573 374.19278,4.32634524 370.847087,4.88636017 C369.803856,5.06194241 368.74408,5.31977107 367.720151,5.56835856 C364.110664,6.44719388 360.373415,7.35375272 356.093869,5.15250589 C346.425369,0.179832003 335.752241,-1.20264711 324.365856,1.04480557 C297.364094,6.37696099 279.670527,32.7568065 284.923448,59.8528427 C287.606436,73.6970404 296.201374,85.8242285 308.504148,93.1238291 C320.8731,100.462243 335.687901,102.162618 349.156153,97.796165 C351.031211,97.1871718 352.88421,96.5134905 354.812579,95.8111615 C355.730806,95.4766311 356.664659,95.1374802 357.626086,94.7946328 L358.667479,94.4240618 L358.786049,95.5274576 C358.814542,95.7982239 358.854985,96.0366461 358.890832,96.2547377 C358.971716,96.7362027 359.048006,97.1917924 358.962525,97.6741815 C356.945918,108.956727 345.288385,119.146965 333.504009,119.928768 C325.604866,120.443502 319.214041,117.268235 313.992371,114.0865 C313.133888,113.562526 311.565824,113.341662 311.207357,113.520017 C307.211828,117.623096 303.369796,121.842615 299.302574,126.308873 L296.36682,129.526648 C304.983817,137.359464 314.90784,141.821102 325.87969,142.7905 C340.912329,144.129546 355.930261,139.002545 367.126383,128.759631 C378.326181,118.513021 384.806163,103.943392 384.905431,88.7878719 C385.037788,68.444359 385.00286,47.7579987 384.968852,27.7527126 C384.954145,20.0668311 384.941277,12.3827977 384.937601,4.69691618" id="Fill-5" fill="#023436"></path>
            <path d="M233.635524,68.2375553 C228.828043,73.0067824 222.315309,75.6310556 215.292479,75.6310556 L215.22027,75.6310556 C208.261318,75.613542 201.809684,72.9782076 197.05312,68.2099023 C192.24749,63.3908997 189.617401,56.849113 189.647951,49.792058 C189.709977,35.5737883 200.990385,24.4286927 215.330436,24.4176315 L215.350802,24.4176315 C222.370854,24.4176315 228.871554,27.0428264 233.659594,31.8111317 C238.453189,36.5858894 241.089759,43.0714483 241.083278,50.0759625 C241.076798,57.0297795 238.430971,63.4803112 233.635524,68.2375553 M264.864248,1.41399195 C259.777187,1.52644763 254.513305,1.64443392 249.274419,1.38541714 C246.931316,1.27111792 245.057574,1.25636964 244.026275,2.21039941 C243.36991,2.81784445 243.033858,3.84838095 242.999605,5.35454969 C242.98757,5.85414789 242.618191,6.09933814 242.419153,6.22930742 C242.348795,6.27447404 242.254367,6.3389978 242.137721,6.42472221 L241.738718,6.72521854 L241.276762,6.53625613 C240.974964,6.413661 240.655576,6.29198763 240.327857,6.1638619 C239.567806,5.87166148 238.754987,5.55733862 237.972718,5.18586616 C230.703637,1.72923657 223.318834,0 215.883115,0 C209.271324,0 202.617874,1.36513825 195.963498,4.09910182 C172.863889,13.5868587 159.841197,40.1088863 166.93531,63.2222162 C171.499316,78.0977065 182.115027,90.0281483 196.059777,95.9551158 C210.033226,101.890379 226.069273,101.271873 240.054757,94.2443146 C241.593373,93.4709514 243.74114,93.1686115 245.790777,93.4303936 C247.630266,93.6663662 249.430873,94.1631991 251.173157,94.6452837 C252.08318,94.8969263 252.993204,95.1494907 253.908783,95.3651844 C257.157281,96.1274864 260.410408,96.8667443 263.729264,97.6179851 L266.761134,98.3074675 C266.76854,98.269675 266.775021,98.2318825 266.781501,98.1959336 C266.87778,97.6779 266.948138,97.3036623 266.948138,96.9561558 L266.959247,65.7994792 C266.962025,45.0274398 266.965728,24.2554003 266.999981,3.48336087 C267.001832,2.6095249 266.869448,2.0527771 266.593571,1.78362087 C266.31862,1.51354288 265.744648,1.3808083 264.864248,1.41399195" id="Fill-7" fill="#023436"></path>
            <g id="Group-11" transform="translate(570.000000, 0.000000)">
                <mask id="mask-10" fill="white">
                    <use xlink:href="#path-9"></use>
                </mask>
                <g id="Clip-10"></g>
                <path d="M68.6712703,68.7946211 C63.9195405,73.6009239 57.4779189,76.2482358 50.5336486,76.2510156 L50.5235405,76.2510156 C43.5618108,76.2510156 37.1091622,73.6092633 32.3546757,68.8103734 C27.5928378,64.0049972 24.9748378,57.4816945 24.984027,50.4450523 C25.0014865,36.1030523 36.1259189,24.8244101 50.3085135,24.7688138 L50.4141892,24.7688138 C57.4062432,24.7688138 63.8772703,27.396667 68.6446216,32.174245 C73.3954324,36.9342174 76.0235405,43.4047037 76.041,50.394089 C76.0575405,57.4372174 73.4395405,63.9725661 68.6712703,68.7946211 M101.22673,2.06975872 C100.847216,1.70560275 100.085432,1.56012569 98.877973,1.6120156 C93.8505676,1.85478624 88.6393784,1.85756606 83.3877568,1.62035505 C81.1970541,1.52028165 79.6753243,1.62313486 78.8657568,2.42742844 C78.2987838,2.99451101 78.0442432,3.96096055 78.092027,5.3833 C78.1058108,5.96242844 77.6674865,6.25523578 77.3771081,6.44704312 C77.2842973,6.50912569 77.174027,6.58047431 77.061,6.66850183 L76.664027,6.9816945 L76.1962973,6.78896055 C75.9141892,6.67406147 75.6210541,6.55916239 75.3187297,6.44241009 C74.6175946,6.16906147 73.8797027,5.88088716 73.1693784,5.5343367 C65.9117568,1.99285046 58.6247297,0.227666972 51.1667838,0.227666972 C45.8535946,0.227666972 40.4567838,1.12276789 34.9184595,2.91111651 C10.1177568,10.9234743 -4.78802703,38.6966211 2.37127027,63.5574468 C6.63413514,78.3627495 17.0748919,90.3659972 31.0148919,96.4880798 C44.874027,102.571245 60.5847838,102.114428 74.1232162,95.2399422 C76.7697027,93.894511 79.3022432,93.6813917 82.5846216,94.5301624 C87.1691081,95.7162174 91.7342973,96.7883 96.5650541,97.9261716 C98.209,98.3107128 99.8704054,98.702667 101.559378,99.1029606 C101.571324,98.9472908 101.580514,98.7944009 101.593378,98.6442908 C101.661378,97.7612358 101.722946,96.9810339 101.726622,96.2026853 C101.745,92.0589055 101.741324,87.9141991 101.739486,83.7694927 L101.733054,62.892144 C101.724784,43.8049972 101.715595,24.0683 101.796459,4.65776789 C101.801054,3.25488716 101.625541,2.45615321 101.22673,2.06975872" id="Fill-9" fill="#023436" mask="url(#mask-10)"></path>
            </g>
        </g>
    </g>
</svg>